<svg width="152" height="48" viewBox="0 0 152 48" fill="none" xmlns="http://www.w3.org/2000/svg">
<path d="M28.0003 29.2698L32.1503 31.7798C32.9103 32.2398 33.8403 31.5598 33.6403 30.6998L32.5403 25.9798L36.2103 22.7998C36.8803 22.2198 36.5203 21.1198 35.6403 21.0498L30.8103 20.6398L28.9203 16.1798C28.5803 15.3698 27.4203 15.3698 27.0803 16.1798L25.1903 20.6298L20.3603 21.0398C19.4803 21.1098 19.1203 22.2098 19.7903 22.7898L23.4603 25.9698L22.3603 30.6898C22.1603 31.5498 23.0903 32.2298 23.8503 31.7698L28.0003 29.2698Z" fill="#FFBE00"/>
<path d="M52.0003 29.2698L56.1503 31.7798C56.9103 32.2398 57.8403 31.5598 57.6403 30.6998L56.5403 25.9798L60.2103 22.7998C60.8803 22.2198 60.5203 21.1198 59.6403 21.0498L54.8103 20.6398L52.9203 16.1798C52.5803 15.3698 51.4203 15.3698 51.0803 16.1798L49.1903 20.6298L44.3603 21.0398C43.4803 21.1098 43.1203 22.2098 43.7903 22.7898L47.4603 25.9698L46.3603 30.6898C46.1603 31.5498 47.0903 32.2298 47.8503 31.7698L52.0003 29.2698Z" fill="#FFBE00"/>
<path d="M76.0003 29.2698L80.1503 31.7798C80.9103 32.2398 81.8403 31.5598 81.6403 30.6998L80.5403 25.9798L84.2103 22.7998C84.8803 22.2198 84.5203 21.1198 83.6403 21.0498L78.8103 20.6398L76.9203 16.1798C76.5803 15.3698 75.4203 15.3698 75.0803 16.1798L73.1903 20.6298L68.3603 21.0398C67.4803 21.1098 67.1203 22.2098 67.7903 22.7898L71.4603 25.9698L70.3603 30.6898C70.1603 31.5498 71.0903 32.2298 71.8503 31.7698L76.0003 29.2698Z" fill="#FFBE00"/>
<path d="M100 29.2698L104.15 31.7798C104.91 32.2398 105.84 31.5598 105.64 30.6998L104.54 25.9798L108.21 22.7998C108.88 22.2198 108.52 21.1198 107.64 21.0498L102.81 20.6398L100.92 16.1798C100.58 15.3698 99.4203 15.3698 99.0803 16.1798L97.1903 20.6298L92.3603 21.0398C91.4803 21.1098 91.1203 22.2098 91.7903 22.7898L95.4603 25.9698L94.3603 30.6898C94.1603 31.5498 95.0903 32.2298 95.8503 31.7698L100 29.2698Z" fill="#FFBE00"/>
<path d="M124 29.2698L128.15 31.7798C128.91 32.2398 129.84 31.5598 129.64 30.6998L128.54 25.9798L132.21 22.7998C132.88 22.2198 132.52 21.1198 131.64 21.0498L126.81 20.6398L124.92 16.1798C124.58 15.3698 123.42 15.3698 123.08 16.1798L121.19 20.6298L116.36 21.0398C115.48 21.1098 115.12 22.2098 115.79 22.7898L119.46 25.9698L118.36 30.6898C118.16 31.5498 119.09 32.2298 119.85 31.7698L124 29.2698Z" fill="#FFBE00"/>
</svg>
