<svg width="48" height="51" viewBox="0 0 48 51" fill="none" xmlns="http://www.w3.org/2000/svg">
<path fill-rule="evenodd" clip-rule="evenodd" d="M45.3597 43.2435C45.3776 46.5392 42.7198 49.2226 39.426 49.2403C39.1812 49.2423 38.9343 49.2285 38.6915 49.1988C35.6348 48.7467 33.3957 46.0868 33.4706 42.9986V7.4914C33.3976 4.39913 35.6427 1.73943 38.7013 1.29115C41.9731 0.908111 44.9371 3.24986 45.3201 6.52185C45.3478 6.76276 45.3616 7.00367 45.3596 7.24646V43.2434L45.3597 43.2435Z" stroke="#A6D1C9" stroke-width="2.5"/>
<path fill-rule="evenodd" clip-rule="evenodd" d="M7.94551 37.3591C11.2293 37.3591 13.891 40.0208 13.891 43.3046C13.891 46.5884 11.2293 49.2502 7.94551 49.2502C4.66171 49.2502 2 46.5884 2 43.3046C2 40.0208 4.66171 37.3591 7.94551 37.3591ZM23.5883 19.3409C20.2888 19.5224 17.7297 22.2888 17.8067 25.5924V41.5609C17.8067 45.8952 19.7141 48.5254 22.5082 49.0861C25.7328 49.7398 28.8743 47.6565 29.528 44.432C29.6089 44.037 29.6483 43.6363 29.6463 43.2335V25.316C29.6522 22.0204 26.9866 19.3447 23.691 19.339C23.6575 19.339 23.6219 19.339 23.5883 19.341V19.3409Z" stroke="#A6D1C9" stroke-width="2.5"/>
</svg>
