<svg width="48" height="48" viewBox="0 0 48 48" fill="none" xmlns="http://www.w3.org/2000/svg">
<path d="M23.9999 1.80347C22.9396 1.80347 21.8794 2.20602 21.0749 3.0105L3.01044 21.075C1.40147 22.6839 1.40147 25.316 3.01044 26.925L21.0749 44.9894C21.8794 45.7939 22.9421 46.2 23.9999 46.2C25.0577 46.2 26.1204 45.7939 26.9249 44.9894L44.9893 26.925C46.599 25.316 46.599 22.6839 44.9893 21.075L26.9249 3.0105C26.1204 2.20602 25.0602 1.80347 23.9999 1.80347ZM23.9999 2.9976C24.751 2.9976 25.5021 3.28461 26.0765 3.85893L44.1409 21.9234C45.2901 23.0721 45.2901 24.9278 44.1409 26.0765L26.0765 44.141C25.5021 44.7153 24.7529 45 23.9999 45C23.2469 45 22.4976 44.7153 21.9233 44.141L3.85887 26.0765C2.71024 24.9279 2.71024 23.072 3.85887 21.9234L21.9233 3.85893C22.4976 3.28461 23.2488 2.9976 23.9999 2.9976ZM31.6089 10.8046C31.4317 10.7885 31.2499 10.8514 31.1284 10.9734C31.0744 11.0334 31.026 11.0994 30.996 11.1714C30.966 11.2434 30.9538 11.322 30.9538 11.4C30.9538 11.478 30.966 11.5565 30.996 11.6285C31.026 11.7005 31.0684 11.7659 31.1284 11.8265C31.1824 11.8805 31.2474 11.9219 31.3194 11.9519C31.3914 11.9819 31.4698 12 31.5538 12C31.6318 12 31.7103 11.9819 31.7823 11.9519C31.8543 11.9219 31.9193 11.8805 31.9733 11.8265C32.0873 11.7125 32.1538 11.562 32.1538 11.4C32.1538 11.322 32.1357 11.2434 32.1057 11.1714C32.0757 11.0934 32.0333 11.0334 31.9733 10.9734C31.9193 10.9194 31.8543 10.878 31.7823 10.848C31.7268 10.824 31.6679 10.81 31.6089 10.8046ZM30.0515 12.2976C29.8985 12.2976 29.7454 12.3561 29.6284 12.4734C29.3944 12.7074 29.3944 13.0919 29.6284 13.3265C29.7424 13.4399 29.8978 13.5 30.0538 13.5C30.2038 13.5 30.3593 13.4399 30.4733 13.3265C30.7073 13.0919 30.7073 12.7074 30.4733 12.4734C30.3563 12.3561 30.2044 12.2976 30.0515 12.2976ZM28.5515 13.7976C28.3985 13.7976 28.2454 13.8561 28.1284 13.9734C27.8944 14.2074 27.8944 14.5919 28.1284 14.8265C28.2424 14.9399 28.3978 15 28.5538 15C28.7038 15 28.8593 14.9399 28.9733 14.8265C29.2073 14.5919 29.2073 14.2074 28.9733 13.9734C28.8563 13.8561 28.7044 13.7976 28.5515 13.7976ZM27.0515 15.2976C26.8985 15.2976 26.7454 15.3561 26.6284 15.4734C26.3944 15.7074 26.3944 16.0919 26.6284 16.3265C26.7424 16.4399 26.8978 16.5 27.0538 16.5C27.2038 16.5 27.3593 16.4399 27.4733 16.3265C27.7073 16.0919 27.7073 15.7074 27.4733 15.4734C27.3563 15.3561 27.2044 15.2976 27.0515 15.2976ZM25.4917 16.8035C25.4331 16.8093 25.3749 16.824 25.3194 16.848C25.2474 16.878 25.1824 16.9194 25.1284 16.9734C25.0744 17.0334 25.026 17.0934 24.996 17.1714C24.966 17.2434 24.9538 17.322 24.9538 17.4C24.9538 17.562 25.0144 17.7125 25.1284 17.8265C25.1824 17.8805 25.2474 17.9219 25.3194 17.9519C25.3914 17.9819 25.4698 18 25.5538 18C25.6318 18 25.7103 17.9819 25.7823 17.9519C25.8543 17.9219 25.9193 17.8805 25.9733 17.8265C26.0873 17.7125 26.1538 17.562 26.1538 17.4C26.1538 17.322 26.1358 17.2434 26.1058 17.1714C26.0758 17.0994 26.0333 17.0334 25.9733 16.9734C25.8473 16.8474 25.6675 16.786 25.4917 16.8035ZM23.9999 18.0011L18.0011 24L18.4253 24.4242L23.9999 29.9988L29.9987 24L23.9999 18.0011ZM23.9999 19.698L28.3018 24L23.9999 28.3019L19.6979 24L23.9999 19.698ZM22.5515 30.0023C22.4735 30.0023 22.3944 30.0177 22.3194 30.048C22.2474 30.078 22.1824 30.1194 22.1284 30.1734C22.0744 30.2334 22.026 30.2994 21.996 30.3714C21.966 30.4434 21.9538 30.522 21.9538 30.6C21.9538 30.678 21.966 30.7565 21.996 30.8285C22.026 30.9005 22.0684 30.9659 22.1284 31.0265C22.2424 31.1399 22.3918 31.2 22.5538 31.2C22.7098 31.2 22.8653 31.1399 22.9733 31.0265C23.0333 30.9659 23.0757 30.9005 23.1057 30.8285C23.1357 30.7565 23.1538 30.678 23.1538 30.6C23.1538 30.522 23.1357 30.4434 23.1057 30.3714C23.0757 30.2934 23.0333 30.2334 22.9733 30.1734C22.9193 30.1194 22.8543 30.078 22.7823 30.048C22.7073 30.0177 22.6295 30.0023 22.5515 30.0023ZM25.4483 30.0023C25.3703 30.0023 25.2925 30.0177 25.2175 30.048C25.1455 30.078 25.0804 30.1194 25.0264 30.1734C24.9124 30.2868 24.846 30.444 24.846 30.6C24.846 30.678 24.864 30.7565 24.894 30.8285C24.924 30.9005 24.9664 30.9659 25.0264 31.0265C25.0804 31.0805 25.1455 31.1219 25.2175 31.1519C25.2895 31.1819 25.368 31.2 25.446 31.2C25.608 31.2 25.7574 31.1399 25.8714 31.0265C25.9254 30.9659 25.9738 30.9005 26.0038 30.8285C26.0338 30.7565 26.046 30.678 26.046 30.6C26.046 30.522 26.0338 30.4434 26.0038 30.3714C25.9738 30.2934 25.9254 30.2334 25.8714 30.1734C25.8174 30.1194 25.7523 30.078 25.6803 30.048C25.6053 30.0177 25.5263 30.0023 25.4483 30.0023ZM21.0515 31.4976C20.8985 31.4976 20.7454 31.5561 20.6284 31.6734C20.3944 31.9074 20.3944 32.2919 20.6284 32.5265C20.7424 32.6399 20.8978 32.7 21.0538 32.7C21.2038 32.7 21.3593 32.6399 21.4733 32.5265C21.7073 32.2919 21.7073 31.9074 21.4733 31.6734C21.3563 31.5561 21.2045 31.4976 21.0515 31.4976ZM26.9483 31.4976C26.7953 31.4976 26.6435 31.5561 26.5265 31.6734C26.2925 31.9074 26.2925 32.2919 26.5265 32.5265C26.6405 32.6399 26.796 32.7 26.946 32.7C27.102 32.7 27.2574 32.6399 27.3714 32.5265C27.6054 32.2919 27.6054 31.9074 27.3714 31.6734C27.2544 31.5561 27.1013 31.4976 26.9483 31.4976ZM19.5515 32.9976C19.3985 32.9976 19.2454 33.0561 19.1284 33.1734C18.8944 33.4074 18.8944 33.7919 19.1284 34.0265C19.2424 34.1399 19.3978 34.2 19.5538 34.2C19.7038 34.2 19.8593 34.1399 19.9733 34.0265C20.2073 33.7919 20.2073 33.4074 19.9733 33.1734C19.8563 33.0561 19.7045 32.9976 19.5515 32.9976ZM28.4483 32.9976C28.2953 32.9976 28.1435 33.0561 28.0265 33.1734C27.7925 33.4074 27.7925 33.7919 28.0265 34.0265C28.1405 34.1399 28.296 34.2 28.446 34.2C28.602 34.2 28.7574 34.1399 28.8714 34.0265C29.1054 33.7919 29.1054 33.4074 28.8714 33.1734C28.7544 33.0561 28.6013 32.9976 28.4483 32.9976ZM18.0515 34.4976C17.8985 34.4976 17.7454 34.5561 17.6284 34.6734C17.3944 34.9074 17.3944 35.2919 17.6284 35.5265C17.7424 35.6399 17.8978 35.7 18.0538 35.7C18.2038 35.7 18.3593 35.6399 18.4733 35.5265C18.7073 35.2919 18.7073 34.9074 18.4733 34.6734C18.3563 34.5561 18.2044 34.4976 18.0515 34.4976ZM29.9483 34.4976C29.7953 34.4976 29.6435 34.5561 29.5265 34.6734C29.2925 34.9074 29.2925 35.2919 29.5265 35.5265C29.6405 35.6399 29.796 35.7 29.946 35.7C30.102 35.7 30.2574 35.6399 30.3714 35.5265C30.6054 35.2919 30.6054 34.9074 30.3714 34.6734C30.2544 34.5561 30.1013 34.4976 29.9483 34.4976ZM16.5515 36.0023C16.4735 36.0023 16.3944 36.0177 16.3194 36.048C16.2474 36.078 16.1824 36.1194 16.1284 36.1734C16.0144 36.2868 15.9538 36.444 15.9538 36.6C15.9538 36.762 16.0144 36.9125 16.1284 37.0265C16.2424 37.1399 16.3918 37.2 16.5538 37.2C16.7098 37.2 16.8653 37.1399 16.9733 37.0265C17.0873 36.9125 17.1538 36.762 17.1538 36.6C17.1538 36.444 17.0873 36.2868 16.9733 36.1734C16.9193 36.1194 16.8543 36.078 16.7823 36.048C16.7073 36.0177 16.6295 36.0023 16.5515 36.0023ZM31.3897 36.0035C31.3311 36.0093 31.273 36.024 31.2175 36.048C31.1455 36.078 31.0805 36.1194 31.0265 36.1734C30.9125 36.2868 30.846 36.444 30.846 36.6C30.846 36.762 30.9125 36.9125 31.0265 37.0265C31.1405 37.1399 31.2898 37.2 31.4518 37.2C31.6078 37.2 31.7574 37.1399 31.8714 37.0265C31.9854 36.9125 32.046 36.762 32.046 36.6C32.046 36.444 31.9854 36.2868 31.8714 36.1734C31.7454 36.0474 31.5655 35.986 31.3897 36.0035Z" fill="#A6D1C9"/>
</svg>
